<svg width="128" height="128" viewBox="0 0 128 128" fill="none" xmlns="http://www.w3.org/2000/svg">
<rect width="128" height="128" fill="#5FA8FF"/>
<path d="M38.1057 93.911C35.9344 91.3186 37.5623 89.5094 48.3898 82.4821C54.0802 78.7889 58.736 75.0457 58.736 74.164C58.736 73.2823 57.9843 70.7783 57.0656 68.5996L55.3951 64.6384H61.6064H67.8177L68.63 70.0061C69.2023 73.7876 68.9625 76.2211 67.8181 78.2411C66.3045 80.9131 43.6003 95.3127 40.7196 95.4277C40.0047 95.4579 38.8284 94.7737 38.1057 93.911ZM49.5131 63.4961L23.5737 62.8589L48.6781 62.6063L73.7824 62.3537L71.9939 58.927C71.0103 57.0422 69.9411 55.5002 69.6181 55.5002C69.2952 55.5002 69.5679 56.4944 70.2241 57.7096C70.8805 58.9248 71.4175 60.2099 71.4175 60.5653C71.4175 60.9206 67.5266 61.2115 62.771 61.2115C55.2981 61.2115 54.127 60.94 54.1422 59.2126C54.1684 56.3378 55.2663 55.0639 60.5451 51.7891C63.9622 49.6691 65.5278 49.2354 66.3094 50.1922C66.8996 50.9147 66.6946 50.3071 65.8538 48.8417C62.8998 43.6935 64.6769 42.6365 75.1738 43.2978C80.3997 43.6272 82.6003 43.5517 80.0639 43.1303L75.4526 42.3641L79.0948 40.8407C81.8338 39.6949 83.3282 39.6307 85.1213 40.5816C87.097 41.6293 87.3896 41.5463 86.8284 40.0973C86.4559 39.1356 86.9984 37.0676 88.0338 35.5018C90.6564 31.5362 96.0343 31.607 98.7028 35.6422C100.472 38.3178 100.501 38.9435 98.9813 41.639C97.0398 45.0822 91.9149 46.2332 89.0284 43.8745C87.3729 42.5217 87.3267 42.6368 88.5855 44.9774C89.3585 46.4147 89.6799 48.5619 89.2996 49.749C88.4507 52.399 80.8943 56.9834 78.7309 56.1608C77.4669 55.6803 77.502 56.2269 78.9079 58.9203C80.6602 62.2779 80.6653 62.2793 93.044 62.6729L105.427 63.0667L92.4552 62.9958C85.3206 62.957 79.4842 63.3106 79.4854 63.7817C79.4867 64.2529 78.5798 64.5248 77.4702 64.3859C76.3606 64.2469 63.78 63.8466 49.5133 63.4961H49.5131Z" fill="white" stroke="#EFEEEE" stroke-width="0.999999" stroke-linecap="round" stroke-linejoin="round"/>
<path d="M85.3884 44.6578C85.3884 44.6578 85.0085 45.465 85.4015 46.9581C85.7954 48.4512 85.8903 49.1238 86.0667 49.1372C86.2432 49.1502 86.9849 47.5591 86.4332 46.2451C85.8817 44.9312 85.8901 44.8731 85.3878 44.6578H85.3884Z" fill="#EFEEEE"/>
<path d="M74.9399 50.9539C74.9399 50.9539 75.1844 50.5299 77.1258 50.4763C79.0672 50.4224 79.2369 50.9269 79.2369 50.9269C79.2369 50.9269 79.1894 51.2633 77.1801 51.2633C75.1708 51.2633 74.9399 50.9537 74.9399 50.9537V50.9539Z" fill="#EFEEEE"/>
</svg>
