<svg width="40" height="40" viewBox="0 0 40 40" fill="none" xmlns="http://www.w3.org/2000/svg">
<g opacity="0.7">
<circle cx="30.35" cy="6.05" r="4.05" stroke="#707070" stroke-width="3" stroke-linecap="round" stroke-linejoin="round"/>
<path d="M20.9001 10.1L13.7701 18.526C13.0832 19.3381 12.7906 20.4124 12.9708 21.4606C13.1509 22.5089 13.7854 23.4238 14.7041 23.96L20.9411 27.6C21.1602 27.7289 21.3146 27.9446 21.366 28.1936C21.4175 28.4426 21.3612 28.7017 21.2111 28.907L14.6011 38.007" stroke="#707070" stroke-width="3" stroke-linecap="round" stroke-linejoin="round"/>
<path d="M7.40002 12.8L10.64 7.94C10.8555 7.61587 11.255 7.46699 11.63 7.571L20.9 10.1L28.1 15.5L32.24 22.948C32.4502 23.3265 32.9002 23.5017 33.311 23.365L38 21.8" stroke="#707070" stroke-width="3" stroke-linecap="round" stroke-linejoin="round"/>
<path d="M28.1 15.5L21.8 22.953" stroke="#707070" stroke-width="3" stroke-linecap="round" stroke-linejoin="round"/>
<path d="M11 27.2L2 38" stroke="#707070" stroke-width="3" stroke-linecap="round" stroke-linejoin="round"/>
</g>
</svg>
