<svg width="40" height="40" viewBox="0 0 40 40" fill="none" xmlns="http://www.w3.org/2000/svg">
<g opacity="0.7">
<path fill-rule="evenodd" clip-rule="evenodd" d="M37.9428 20.0572C37.9428 18.2496 36.4774 16.7842 34.6698 16.7842H32.6048C32.3007 15.6021 31.8318 14.4686 31.2118 13.4172L32.6718 11.9572C33.9286 10.6754 33.9183 8.62044 32.6488 7.35121C31.3793 6.08199 29.3244 6.07217 28.0428 7.32921L26.5828 8.78921C25.5316 8.16884 24.398 7.69989 23.2158 7.39621V5.33021C23.2365 4.14742 22.6173 3.04552 21.5963 2.44808C20.5753 1.85064 19.3113 1.85064 18.2903 2.44808C17.2693 3.04552 16.6501 4.14742 16.6708 5.33021V7.39521C15.4887 7.69926 14.3552 8.16819 13.3038 8.78821L11.8428 7.32921C10.5566 6.10108 8.52518 6.12463 7.26784 7.38225C6.0105 8.63986 5.98739 10.6713 7.21579 11.9572L8.67579 13.4172C8.05543 14.4684 7.58647 15.602 7.28279 16.7842H5.21579C3.43074 16.8154 2 18.2714 2 20.0567C2 21.842 3.43074 23.298 5.21579 23.3292H7.28079C7.58484 24.5113 8.05377 25.6448 8.67379 26.6962L7.21479 28.1572C5.98667 29.4434 6.01022 31.4748 7.26783 32.7322C8.52544 33.9895 10.5569 34.0126 11.8428 32.7842L13.3028 31.3242C14.354 31.9446 15.4875 32.4135 16.6698 32.7172V34.7842C16.701 36.5693 18.157 38 19.9423 38C21.7276 38 23.1836 36.5693 23.2148 34.7842V32.7192C24.3969 32.4152 25.5304 31.9462 26.5818 31.3262L28.0418 32.7862C29.3236 34.043 31.3786 34.0327 32.6478 32.7632C33.917 31.4937 33.9268 29.4388 32.6698 28.1572L31.2098 26.6972C31.8302 25.646 32.2991 24.5125 32.6028 23.3302H34.6698C36.4772 23.3297 37.9422 21.8646 37.9428 20.0572V20.0572Z" stroke="#707070" stroke-width="3" stroke-linecap="round" stroke-linejoin="round"/>
<circle cx="19.9428" cy="20.0572" r="4.909" stroke="#707070" stroke-width="3" stroke-linecap="round" stroke-linejoin="round"/>
</g>
</svg>
